<?xml version="1.0" encoding="UTF-8" standalone="no"?>
<!DOCTYPE svg PUBLIC "-//W3C//DTD SVG 1.1//EN" "http://www.w3.org/Graphics/SVG/1.1/DTD/svg11.dtd">
<svg version="1.1" xmlns="http://www.w3.org/2000/svg" xmlns:xlink="http://www.w3.org/1999/xlink" preserveAspectRatio="xMidYMid meet" viewBox="0 0 640 640" width="640" height="640"><defs><path d="M480.38 160C491.22 160 500 168.78 500 179.62C500 247.69 500 432.31 500 500.38C500 511.22 491.22 520 480.38 520C412.31 520 227.69 520 159.62 520C148.78 520 140 511.22 140 500.38C140 432.31 140 247.69 140 179.62C140 168.78 148.78 160 159.62 160C227.69 160 412.31 160 480.38 160Z" id="ayRjMmj0"></path><path d="M193.81 107.42L206.19 107.42L206.19 160L193.81 160L193.81 107.42Z" id="euuqoMdto"></path><path d="M273.81 107.42L286.19 107.42L286.19 160L273.81 160L273.81 107.42Z" id="h1pkTSKIY7"></path><path d="M433.81 107.42L446.19 107.42L446.19 160L433.81 160L433.81 107.42Z" id="aJopjkyPK"></path><path d="M353.81 107.42L366.19 107.42L366.19 160L353.81 160L353.81 107.42Z" id="bE7Nr7waa"></path><path d="M193.81 520L206.19 520L206.19 572.58L193.81 572.58L193.81 520Z" id="bijhj5ERN"></path><path d="M273.81 520L286.19 520L286.19 572.58L273.81 572.58L273.81 520Z" id="a2Y6gRhkXo"></path><path d="M433.81 520L446.19 520L446.19 572.58L433.81 572.58L433.81 520Z" id="a2Kr3w9LD"></path><path d="M353.81 520L366.19 520L366.19 572.58L353.81 572.58L353.81 520Z" id="cPaZKufoH"></path><path d="M500 466.19L500 453.81L552.58 453.81L552.58 466.19L500 466.19Z" id="bArj5FjKG"></path><path d="M500 386.19L500 373.81L552.58 373.81L552.58 386.19L500 386.19Z" id="gP4204sDE"></path><path d="M500 226.19L500 213.81L552.58 213.81L552.58 226.19L500 226.19Z" id="a39NEC4MG4"></path><path d="M500 306.19L500 293.81L552.58 293.81L552.58 306.19L500 306.19Z" id="g4D5YJEoua"></path><path d="M87.42 466.19L87.42 453.81L140 453.81L140 466.19L87.42 466.19Z" id="b1RDJZ5rTf"></path><path d="M87.42 386.19L87.42 373.81L140 373.81L140 386.19L87.42 386.19Z" id="a6bPyP4At"></path><path d="M87.42 226.19L87.42 213.81L140 213.81L140 226.19L87.42 226.19Z" id="cljYUHtET"></path><path d="M87.42 306.19L87.42 293.81L140 293.81L140 306.19L87.42 306.19Z" id="dmDoTME31"></path><path d="M270 459.97L270 223.32" id="c2jKHmZbVU"></path><path d="M285 455C285 463.28 278.28 470 270 470C261.72 470 255 463.28 255 455C255 446.72 261.72 440 270 440C278.28 440 285 446.72 285 455Z" id="idn5Jl5V1"></path><path d="M277.56 460.77C274.38 464.94 268.41 465.75 264.23 462.56C260.06 459.38 259.25 453.41 262.44 449.23C265.62 445.06 271.59 444.25 275.77 447.44C279.94 450.62 280.75 456.59 277.56 460.77Z" id="nBagOunGk"></path><path d="M285 230C285 238.28 278.28 245 270 245C261.72 245 255 238.28 255 230C255 221.72 261.72 215 270 215C278.28 215 285 221.72 285 230Z" id="c1whmYBr3x"></path><path d="M277.56 235.77C274.38 239.94 268.41 240.75 264.23 237.56C260.06 234.38 259.25 228.41 262.44 224.23C265.62 220.06 271.59 219.25 275.77 222.44C279.94 225.62 280.75 231.59 277.56 235.77Z" id="c3Jg6AZZI"></path><path d="M370 459.96L370 364.83L370 223.07" id="b6mQClQbSU"></path><path d="M385 454.98C385 463.27 378.28 470 370 470C361.72 470 355 463.27 355 454.98C355 446.7 361.72 439.97 370 439.97C378.28 439.97 385 446.7 385 454.98Z" id="b4A3796cQv"></path><path d="M377.56 460.76C374.38 464.94 368.41 465.74 364.23 462.56C360.06 459.37 359.25 453.39 362.44 449.21C365.62 445.03 371.59 444.23 375.77 447.41C379.94 450.6 380.75 456.58 377.56 460.76Z" id="aAcoXeMd"></path><path d="M370.71 230.54L303.1 230.54" id="b1zD10I561"></path><path d="M301.47 223.79L315.42 217.04L315.42 230.54L315.42 244.05L301.47 237.3L287.53 230.54L301.47 223.79Z" id="a1kk60r7i"></path></defs><g><g><g><g><use xlink:href="#ayRjMmj0" opacity="1" fill="#85d832" fill-opacity="1"></use></g><g><g><use xlink:href="#euuqoMdto" opacity="1" fill="#95ea63" fill-opacity="1"></use></g><g><use xlink:href="#h1pkTSKIY7" opacity="1" fill="#95ea63" fill-opacity="1"></use></g><g><use xlink:href="#aJopjkyPK" opacity="1" fill="#95ea63" fill-opacity="1"></use></g><g><use xlink:href="#bE7Nr7waa" opacity="1" fill="#95ea63" fill-opacity="1"></use></g></g><g><g><use xlink:href="#bijhj5ERN" opacity="1" fill="#95ea63" fill-opacity="1"></use></g><g><use xlink:href="#a2Y6gRhkXo" opacity="1" fill="#95ea63" fill-opacity="1"></use></g><g><use xlink:href="#a2Kr3w9LD" opacity="1" fill="#95ea63" fill-opacity="1"></use></g><g><use xlink:href="#cPaZKufoH" opacity="1" fill="#95ea63" fill-opacity="1"></use></g></g><g><g><use xlink:href="#bArj5FjKG" opacity="1" fill="#95ea63" fill-opacity="1"></use></g><g><use xlink:href="#gP4204sDE" opacity="1" fill="#95ea63" fill-opacity="1"></use></g><g><use xlink:href="#a39NEC4MG4" opacity="1" fill="#95ea63" fill-opacity="1"></use></g><g><use xlink:href="#g4D5YJEoua" opacity="1" fill="#95ea63" fill-opacity="1"></use></g></g><g><g><use xlink:href="#b1RDJZ5rTf" opacity="1" fill="#95ea63" fill-opacity="1"></use></g><g><use xlink:href="#a6bPyP4At" opacity="1" fill="#95ea63" fill-opacity="1"></use></g><g><use xlink:href="#cljYUHtET" opacity="1" fill="#95ea63" fill-opacity="1"></use></g><g><use xlink:href="#dmDoTME31" opacity="1" fill="#95ea63" fill-opacity="1"></use></g></g></g><g><g><g><use xlink:href="#c2jKHmZbVU" opacity="1" fill-opacity="0" stroke="#000000" stroke-width="15" stroke-opacity="1"></use></g></g><g><g><use xlink:href="#idn5Jl5V1" opacity="1" fill="#000000" fill-opacity="1"></use></g><g><use xlink:href="#nBagOunGk" opacity="1" fill="#ffffff" fill-opacity="1"></use></g></g><g><g><use xlink:href="#c1whmYBr3x" opacity="1" fill="#000000" fill-opacity="1"></use></g><g><use xlink:href="#c3Jg6AZZI" opacity="1" fill="#ffffff" fill-opacity="1"></use></g></g></g><g><g><g><use xlink:href="#b6mQClQbSU" opacity="1" fill-opacity="0" stroke="#000000" stroke-width="15" stroke-opacity="1"></use></g></g><g><g><use xlink:href="#b4A3796cQv" opacity="1" fill="#000000" fill-opacity="1"></use></g><g><use xlink:href="#aAcoXeMd" opacity="1" fill="#ffffff" fill-opacity="1"></use></g></g><g><g><use xlink:href="#b1zD10I561" opacity="1" fill-opacity="0" stroke="#000000" stroke-width="15" stroke-opacity="1"></use></g></g><g><use xlink:href="#a1kk60r7i" opacity="1" fill="#000000" fill-opacity="1"></use></g></g></g></g></svg>
